<svg xmlns="http://www.w3.org/2000/svg" width="21" height="19.169" viewBox="0 0 21 19.169"><g transform="translate(-812 -1060)"><path d="M12,21l-1.45-1.295C5.4,15.124,2,12.1,2,8.4A5.4,5.4,0,0,1,7.5,3,6.037,6.037,0,0,1,12,5.05,6.037,6.037,0,0,1,16.5,3,5.4,5.4,0,0,1,22,8.4c0,3.708-3.4,6.729-8.55,11.32Z" transform="translate(810.5 1057.5)" fill="rgba(167,86,86,0)" stroke="#fff" stroke-linecap="square" stroke-width="1"/><path d="M-21732.5-22680.385l4.012-2.328,3.367,1.3c0,.027,1.617,1.664,1.617,1.664,0,.057,1.211,2.813,1.211,2.813s-.1,2.152-2.682,5.125a62.107,62.107,0,0,1-7.66,6.768c0,.084-7.432-5.4-9.23-9.607s2.037-7.219,2.037-7.219l4-.42Z" transform="translate(22555 23743)" fill="#fff"/></g></svg>